# xmcd
#
# Track frame offsets:
#	150
#	16014
#	37101
#	58479
#	79153
#	105851
#	128086
#	151020
#	174218
#	192068
#	227548
#	247034
#	271528
#	290996
#
# Disc length: 4339 seconds
#
# Revision: 0
# Processed by: cddbd v1.5.2PL0 Copyright (c) Steve Scherf et al.
# Submitted via: audiograbber 1.83.01
#
DISCID=ad10f10e
DTITLE=Black Tongued Bells - Every Tongue
DYEAR=2013
DGENRE=Blues
TTITLE0=Comin' Back for More 	
TTITLE1=Down in the Hood
TTITLE2=Jukin' Joint
TTITLE3=She Ain't Got the Time
TTITLE4=Door to Door Business
TTITLE5=The Midnight Porter
TTITLE6=Rattle Some Bones
TTITLE7=Long Way to Go
TTITLE8=Kingbee Jam
TTITLE9=Willie Lost It All
TTITLE10=Sixteen Tons
TTITLE11=Gimme That Rise
TTITLE12=Beautiful Bride
TTITLE13=Hello Misery
EXTD=
EXTT0=
EXTT1=
EXTT2=
EXTT3=
EXTT4=
EXTT5=
EXTT6=
EXTT7=
EXTT8=
EXTT9=
EXTT10=
EXTT11=
EXTT12=
EXTT13=
PLAYORDER=
